<svg xmlns="http://www.w3.org/2000/svg" width="259" height="209" viewBox="0 0 259 209">
    <path fill="#FFF" fill-rule="evenodd" d="M235.564 14.986c-17.542 7.291-32.617 18.7-45.226 34.226-12.609 15.527-18.913 31.256-18.913 47.187 0 6.75.822 12.556 2.467 17.417 9.594-7.29 20.01-10.936 31.247-10.936 15.35 0 28.164 4.793 38.443 14.379 10.279 9.586 15.418 22.48 15.418 38.68 0 15.122-5.208 27.746-15.624 37.872C232.96 203.937 220.215 209 205.14 209c-21.654 0-38.236-8.776-49.749-26.328-9.593-14.581-14.39-32.808-14.39-54.68 0-27.813 7.195-52.722 21.585-74.73 14.39-22.007 36.113-39.76 65.168-53.262l7.811 14.986zm-141 0c-17.542 7.291-32.617 18.7-45.226 34.226C36.729 64.74 30.425 80.468 30.425 96.4c0 6.75.822 12.556 2.467 17.417 9.32-7.29 19.735-10.936 31.247-10.936 15.076 0 27.821 4.793 38.237 14.379 10.416 9.586 15.624 22.48 15.624 38.68 0 9.992-2.467 19.038-7.4 27.139-4.935 8.1-11.513 14.446-19.736 19.036C82.641 206.704 73.733 209 64.14 209c-21.654 0-38.236-8.776-49.749-26.328C4.797 168.091 0 149.864 0 127.992c0-27.813 7.195-52.722 21.585-74.73C35.975 31.256 57.698 13.503 86.753 0l7.811 14.986z"/>
</svg>
