<svg xmlns="http://www.w3.org/2000/svg" width="398" height="174" viewBox="0 0 398 174">
    <g fill="none" fill-rule="evenodd">
        <path fill="#FFF" d="M-601 0H999v7878H-601z"/>
        <g fill-rule="nonzero">
            <path fill="#FFF" d="M198.216 42.744c-.288-1.967-.92-3.423-1.891-4.37-.97-.946-2.222-1.419-3.748-1.419-.693 0-1.344.113-1.967.337a4.65 4.65 0 0 0-1.654 1.054 5.942 5.942 0 0 0-1.229 1.805c-.332.728-.573 1.591-.717 2.593h11.206zm-5.22 12.495c-1.454 0-2.782-.237-3.98-.707a8.596 8.596 0 0 1-3.08-2.042c-.864-.893-1.53-1.993-1.996-3.306-.465-1.312-.697-2.807-.697-4.48 0-1.66.23-3.142.69-4.442.461-1.3 1.1-2.4 1.92-3.298a8.199 8.199 0 0 1 2.949-2.06c1.146-.477 2.403-.715 3.774-.715 1.421 0 2.714.238 3.878.714a8.054 8.054 0 0 1 2.967 2.06c.811.9 1.439 1.998 1.88 3.3.445 1.3.668 2.78.668 4.44v.86h-15.07c.1 1.188.313 2.213.645 3.08.335.866.771 1.578 1.31 2.134a5.05 5.05 0 0 0 1.868 1.228c.702.262 1.46.392 2.273.392.594 0 1.18-.077 1.758-.228a5.226 5.226 0 0 0 1.555-.686c.458-.307.84-.687 1.137-1.144.297-.461.464-.995.5-1.605h3.64c-.145 1.062-.463 1.998-.954 2.804a6.914 6.914 0 0 1-1.886 2.032 8.463 8.463 0 0 1-2.61 1.246 11.297 11.297 0 0 1-3.138.421l-.002.002zm20.278-.002c-1.384 0-2.651-.229-3.795-.686a8.09 8.09 0 0 1-2.959-2.017c-.823-.885-1.46-1.983-1.91-3.295-.446-1.314-.672-2.826-.672-4.536 0-1.708.226-3.219.673-4.532.448-1.314 1.086-2.41 1.91-3.288a8.166 8.166 0 0 1 2.958-2.009c1.144-.456 2.41-.686 3.796-.686 1.152 0 2.195.15 3.127.448a7.428 7.428 0 0 1 2.44 1.294 6.54 6.54 0 0 1 1.675 2.043c.424.799.697 1.699.818 2.701h-3.637a3.67 3.67 0 0 0-1.4-2.758 4.39 4.39 0 0 0-1.386-.714 5.397 5.397 0 0 0-1.637-.247c-.852 0-1.628.168-2.33.503a4.922 4.922 0 0 0-1.812 1.495c-.505.66-.891 1.471-1.164 2.435-.273.966-.41 2.07-.41 3.315 0 2.554.506 4.473 1.521 5.764 1.012 1.287 2.41 1.93 4.195 1.93.565 0 1.114-.069 1.637-.21.497-.128.966-.349 1.384-.65.4-.292.723-.672.973-1.136.247-.464.39-1.019.427-1.667h3.64c-.12 1.063-.409 1.998-.865 2.804a6.695 6.695 0 0 1-1.753 2.032 7.683 7.683 0 0 1-2.47 1.246c-.966.286-1.967.428-2.973.421h-.001zm19.33-.457a7.416 7.416 0 0 1-1.227.192c-.42.03-.865.046-1.341.046-1.125 0-2-.138-2.62-.412a2.976 2.976 0 0 1-1.4-1.218c-.315-.535-.504-1.185-.572-1.943a30 30 0 0 1-.099-2.582V37.45h-2.48V34.61h2.48v-4.964h3.53v4.964h3.258v2.84h-3.258v11.578c0 .694.04 1.254.126 1.675.086.42.216.746.392.972.176.224.38.372.617.44.238.067.508.1.812.1.314 0 .616-.01.9-.027.284-.019.58-.052.883-.101v2.693zM235.1 54.763h3.565V34.61h-3.564v20.153zm0-23.945h3.565V26.97h-3.564v3.848zm15.103 21.579c1.772 0 3.163-.641 4.177-1.923 1.014-1.281 1.52-3.203 1.52-5.77 0-1.294-.136-2.428-.409-3.398-.272-.972-.662-1.776-1.167-2.418a4.855 4.855 0 0 0-1.808-1.446 5.456 5.456 0 0 0-2.313-.487c-.848 0-1.624.168-2.327.503a4.91 4.91 0 0 0-1.812 1.495c-.504.66-.894 1.471-1.167 2.435-.272.966-.409 2.07-.409 3.315 0 2.554.508 4.473 1.52 5.764 1.014 1.287 2.41 1.93 4.195 1.93zm0-18.208c1.42 0 2.712.238 3.877.714a8.031 8.031 0 0 1 2.966 2.06c.814.9 1.44 1.998 1.881 3.3.446 1.3.667 2.78.667 4.44 0 1.71-.227 3.222-.684 4.536-.451 1.312-1.094 2.41-1.92 3.295a8.054 8.054 0 0 1-2.966 2.017c-1.152.457-2.425.686-3.82.686-1.381 0-2.648-.229-3.795-.686a8.055 8.055 0 0 1-2.956-2.017c-.826-.885-1.465-1.983-1.912-3.295-.45-1.314-.672-2.826-.672-4.536 0-1.708.223-3.219.672-4.53.447-1.316 1.086-2.411 1.912-3.291a8.128 8.128 0 0 1 2.956-2.008c1.147-.456 2.414-.686 3.794-.686v.001zm15.346 3.022c.883-1.05 1.821-1.815 2.81-2.299a7.118 7.118 0 0 1 3.158-.723c4.524 0 6.788 2.456 6.788 7.362v13.212h-3.586V41.735c0-1.633-.288-2.817-.864-3.544-.577-.725-1.54-1.09-2.885-1.09-1.819 0-3.628 1.074-5.421 3.225v14.437h-3.568V34.61h3.568v2.601zm-97.432 0c.885-1.05 1.822-1.815 2.81-2.299a7.122 7.122 0 0 1 3.159-.723c4.527 0 6.788 2.456 6.788 7.362v13.212h-3.585V41.735c0-1.633-.289-2.817-.866-3.544-.576-.725-1.537-1.09-2.883-1.09-1.819 0-3.63 1.074-5.423 3.225v14.437h-3.569V34.61h3.568v2.601h.001zm120.805 18.026c-5.46 0-8.313-2.17-8.553-6.503h3.568c.035 2.44 1.688 3.661 4.968 3.661 1.528 0 2.66-.285 3.393-.857.734-.575 1.1-1.363 1.1-2.362 0-.43-.069-.79-.218-1.083-.147-.291-.428-.555-.845-.789-.418-.232-1.011-.46-1.773-.686-.986-.286-1.975-.558-2.968-.815a30.017 30.017 0 0 1-3.057-.87c-.849-.298-1.555-.661-2.11-1.09a3.822 3.822 0 0 1-1.232-1.567c-.26-.615-.39-1.388-.39-2.319 0-.84.172-1.61.52-2.306.345-.696.845-1.3 1.5-1.813a7.423 7.423 0 0 1 2.378-1.21 10.243 10.243 0 0 1 3.1-.44c5.21 0 7.875 1.882 8.009 5.643h-3.566c-.099-1.916-1.512-2.876-4.244-2.876a7.34 7.34 0 0 0-1.57.165c-.508.11-.949.274-1.33.496a2.553 2.553 0 0 0-.901.842c-.222.356-.336.77-.327 1.19 0 .404.037.729.118.98.079.25.294.481.645.696.352.214.895.424 1.628.633.735.206 1.75.469 3.046.786 1.205.294 2.253.595 3.14.908.893.31 1.637.69 2.232 1.135.594.447 1.04 1 1.338 1.66.295.659.447 1.464.447 2.417 0 .891-.188 1.721-.555 2.492a5.972 5.972 0 0 1-1.602 2.013 8.022 8.022 0 0 1-2.53 1.366c-.99.335-2.107.503-3.36.503zM149.038 37.211c.886-1.05 1.826-1.815 2.813-2.299a7.115 7.115 0 0 1 3.16-.723c4.522 0 6.786 2.456 6.786 7.362v13.212h-3.584V41.735c0-1.633-.29-2.817-.865-3.544-.576-.725-1.54-1.09-2.886-1.09-1.822 0-3.628 1.074-5.424 3.225v14.437h-3.565V34.61h3.565v2.601zm-38.975 18.026c-1.38 0-2.646-.229-3.793-.686a8.142 8.142 0 0 1-2.958-2.017c-.823-.885-1.461-1.983-1.91-3.295-.45-1.314-.675-2.826-.675-4.536 0-1.708.225-3.219.675-4.532.449-1.314 1.087-2.41 1.91-3.288a8.22 8.22 0 0 1 2.958-2.01c1.147-.457 2.413-.687 3.793-.687 1.155 0 2.198.151 3.132.449a7.416 7.416 0 0 1 2.44 1.293 6.51 6.51 0 0 1 1.671 2.043c.425.8.7 1.7.82 2.702h-3.64a3.778 3.778 0 0 0-.426-1.593 3.648 3.648 0 0 0-.976-1.165 4.321 4.321 0 0 0-1.38-.714 5.397 5.397 0 0 0-1.64-.248c-.846 0-1.625.168-2.33.504a4.946 4.946 0 0 0-1.811 1.495c-.5.659-.89 1.47-1.163 2.435-.274.965-.412 2.07-.412 3.315 0 2.554.508 4.473 1.522 5.763 1.014 1.288 2.413 1.93 4.193 1.93.572 0 1.117-.069 1.64-.209a4.095 4.095 0 0 0 1.38-.65c.404-.293.725-.673.977-1.136.25-.464.391-1.02.426-1.668h3.64c-.121 1.064-.409 1.999-.864 2.804a6.638 6.638 0 0 1-1.755 2.032 7.68 7.68 0 0 1-2.467 1.247 10.23 10.23 0 0 1-2.977.42v.002z"/>
            <path fill="#BEA26C" d="M138.174 39.971c1.834 2.752 1.716 6.201.043 8.815l1.233 1.243c2.758-3.866 2.33-9.173-1.012-12.54a9.573 9.573 0 0 0-7.23-2.824l-1.84-1.852c3.819-.762 7.764.446 10.516 3.219a11.814 11.814 0 0 1 3.431 8.331c0 3.125-1.234 6.123-3.431 8.331-.137.137-.28.256-.425.385l-4.231-4.263a5.785 5.785 0 0 0 1.129-7.654 5.7 5.7 0 0 0-7.12-2.036l-1.63-1.642c3.603-2.05 8.213-1.043 10.567 2.487m-13.155 8.767c-1.834-2.75-1.713-6.2-.042-8.816l-1.236-1.243c-2.758 3.867-2.33 9.177 1.014 12.544a9.575 9.575 0 0 0 7.231 2.823l1.84 1.849a11.613 11.613 0 0 1-10.515-3.216 11.824 11.824 0 0 1-3.43-8.333c0-3.126 1.233-6.123 3.428-8.334.137-.137.284-.255.425-.381l4.234 4.262c-2.249 1.869-2.791 5.163-1.127 7.657a5.695 5.695 0 0 0 7.117 2.034l1.632 1.641c-3.602 2.05-8.219 1.042-10.57-2.487"/>
            <path fill="#FFF" d="M101.249 59.67h195.66v-.846h-195.66v.846zm.07 13.674v-8.65h1.136v7.63h4.232v1.022l-5.368-.002zm9.458 0v-8.65h6.214v1.022h-5.079v2.649h4.755v1.014h-4.753v2.944h5.274v1.023l-6.41-.002zm12.232-3.551h2.912l-.896-2.396a22.935 22.935 0 0 1-.61-1.794 11.022 11.022 0 0 1-.463 1.653l-.943 2.537zm-2.48 3.551l3.3-8.65h1.225l3.516 8.65h-1.294l-1.004-2.62h-3.592l-.944 2.62h-1.208zm12.8-1.02h1.834c.567 0 1.012-.054 1.333-.16.323-.106.58-.256.772-.448.27-.271.479-.636.63-1.094.15-.459.226-1.014.226-1.667 0-.905-.148-1.6-.444-2.085-.294-.487-.652-.812-1.076-.977-.303-.119-.794-.177-1.47-.177h-1.804v6.607l-.001.002zm-1.137 1.02v-8.65h2.96c.667 0 1.178.043 1.53.125a2.9 2.9 0 0 1 1.259.62c.454.384.792.878 1.018 1.478.225.6.337 1.284.337 2.056 0 .656-.076 1.238-.228 1.746-.153.508-.348.927-.586 1.26a3.132 3.132 0 0 1-.784.784c-.283.19-.624.335-1.026.435a5.834 5.834 0 0 1-1.379.146h-3.102.001zm11.405 0v-8.65h6.214v1.022h-5.077v2.649h4.754v1.014h-4.754v2.944h5.274v1.023l-6.411-.002zm11.85-4.833h2.445c.52 0 .926-.053 1.218-.162.274-.093.508-.276.667-.518.15-.23.23-.5.23-.775a1.294 1.294 0 0 0-.442-1.01c-.296-.263-.76-.395-1.397-.395h-2.72v2.862-.002zm-1.137 4.833v-8.65h3.809c.765 0 1.349.08 1.747.234.4.155.717.431.955.823.24.394.358.827.358 1.305 0 .613-.197 1.129-.591 1.551-.394.421-1.005.688-1.83.803.302.145.531.288.686.43.333.305.647.69.944 1.15l1.494 2.354h-1.43l-1.137-1.8a16.785 16.785 0 0 0-.819-1.19 2.596 2.596 0 0 0-.579-.58 1.702 1.702 0 0 0-.518-.229 3.4 3.4 0 0 0-.633-.042h-1.319v3.841h-1.137zm10.978-2.78l1.073-.094c.05.435.168.789.354 1.066.185.276.473.502.864.671.391.173.83.258 1.319.258.435 0 .818-.064 1.149-.195.333-.13.58-.308.742-.534.158-.214.243-.473.243-.74a1.126 1.126 0 0 0-.235-.71c-.156-.204-.414-.373-.773-.512-.23-.09-.741-.23-1.53-.42-.789-.192-1.342-.372-1.659-.54a2.339 2.339 0 0 1-.917-.806 1.98 1.98 0 0 1-.303-1.077c0-.437.124-.846.37-1.224.262-.393.64-.695 1.079-.863a4.064 4.064 0 0 1 1.576-.296c.637 0 1.199.103 1.685.31.485.205.861.51 1.122.912.262.4.403.854.424 1.362l-1.09.082c-.06-.546-.259-.96-.597-1.238-.337-.28-.836-.42-1.497-.42-.688 0-1.188.127-1.503.381-.316.254-.472.559-.472.916 0 .313.111.567.334.769.218.201.79.405 1.714.616.924.21 1.558.394 1.902.552.5.23.87.525 1.108.882.238.355.357.766.357 1.23 0 .46-.13.894-.392 1.3-.277.42-.668.75-1.128.95a3.91 3.91 0 0 1-1.656.34c-.78 0-1.43-.114-1.955-.342a2.738 2.738 0 0 1-1.237-1.03 2.93 2.93 0 0 1-.47-1.556h-.001zm21.89 1.76h1.834c.569 0 1.013-.054 1.334-.16a1.92 1.92 0 0 0 .773-.448c.268-.271.479-.636.629-1.094.15-.459.226-1.014.226-1.667 0-.905-.147-1.6-.443-2.085-.295-.487-.651-.812-1.076-.977-.303-.119-.794-.177-1.47-.177h-1.806v6.609zm-1.136 1.02v-8.65h2.96c.667 0 1.179.043 1.53.125.492.115.913.32 1.258.62.455.384.795.878 1.019 1.478.224.6.338 1.284.338 2.056 0 .656-.076 1.238-.229 1.746-.153.508-.349.927-.587 1.26a3.132 3.132 0 0 1-.782.784 3.202 3.202 0 0 1-1.026.435 5.843 5.843 0 0 1-1.379.146h-3.102zm12.21-4.194c0 1.042.277 1.863.833 2.463.558.6 1.256.9 2.096.9.856 0 1.56-.302 2.114-.91.552-.604.828-1.464.828-2.578 0-.703-.119-1.318-.355-1.843a2.738 2.738 0 0 0-1.037-1.22 2.79 2.79 0 0 0-1.532-.435 2.9 2.9 0 0 0-2.078.835c-.58.556-.87 1.485-.87 2.788zm-1.174-.018c0-1.434.384-2.558 1.15-3.372.764-.811 1.754-1.218 2.965-1.218.793 0 1.508.19 2.146.572a3.725 3.725 0 0 1 1.455 1.595c.343.725.515 1.52.502 2.322 0 .877-.176 1.663-.528 2.354a3.62 3.62 0 0 1-1.494 1.572 4.243 4.243 0 0 1-2.087.533c-.81 0-1.53-.195-2.169-.588a3.788 3.788 0 0 1-1.447-1.61 4.905 4.905 0 0 1-.493-2.16zm21.934 3.193h2.14c.366 0 .624-.015.772-.043.263-.047.482-.126.657-.235.184-.119.335-.285.435-.482.116-.224.175-.474.17-.727a1.44 1.44 0 0 0-.248-.841 1.3 1.3 0 0 0-.682-.503c-.292-.097-.71-.144-1.258-.144h-1.985v2.975h-.001zm0-3.997h1.858c.504 0 .864-.032 1.085-.1.26-.065.49-.217.655-.43.15-.221.227-.486.218-.755a1.4 1.4 0 0 0-.205-.758 1.034 1.034 0 0 0-.586-.447c-.253-.082-.69-.122-1.307-.122h-1.718v2.614-.002zm-1.137 5.016v-8.65h3.224c.654 0 1.182.089 1.579.264.398.174.708.444.932.809.226.363.338.744.338 1.14 0 .37-.1.718-.3 1.046-.2.325-.5.589-.902.788.52.154.92.417 1.199.786.279.37.418.806.418 1.31 0 .405-.085.782-.255 1.13-.144.314-.36.59-.63.805a2.63 2.63 0 0 1-.94.427c-.379.098-.84.145-1.386.145h-3.277zm16.404-8.648h1.137v4.996c0 .87-.097 1.56-.292 2.072a2.528 2.528 0 0 1-1.058 1.247c-.51.32-1.18.481-2.007.481-.806 0-1.464-.14-1.976-.42a2.388 2.388 0 0 1-1.097-1.212c-.219-.528-.328-1.251-.328-2.168v-4.996h1.138v4.99c0 .752.069 1.304.208 1.663.14.354.377.628.714.822.34.192.752.29 1.241.29.835 0 1.43-.193 1.787-.575.356-.38.533-1.114.533-2.2v-4.99zm5.358 5.868l1.071-.094c.052.435.17.789.355 1.066.187.276.474.502.864.671.391.173.83.258 1.319.258.434 0 .818-.064 1.151-.195.33-.13.578-.308.74-.534.158-.214.243-.473.242-.74a1.123 1.123 0 0 0-.234-.71c-.155-.204-.413-.373-.773-.512-.23-.09-.743-.23-1.531-.42-.788-.192-1.34-.372-1.658-.54a2.337 2.337 0 0 1-.916-.806 1.98 1.98 0 0 1-.303-1.077c0-.437.123-.846.369-1.224.247-.38.606-.668 1.08-.863a4.064 4.064 0 0 1 1.576-.296c.637 0 1.198.103 1.686.31.485.205.859.51 1.121.912.26.4.402.854.425 1.362l-1.092.082c-.06-.546-.257-.96-.597-1.238-.338-.28-.835-.42-1.497-.42-.688 0-1.187.127-1.504.381-.313.254-.47.559-.47.916 0 .313.111.567.332.769.22.201.792.405 1.715.616.926.21 1.56.394 1.903.552.5.23.87.525 1.107.882.24.363.366.793.357 1.23 0 .46-.13.894-.39 1.3-.278.42-.67.75-1.128.95a3.921 3.921 0 0 1-1.658.34c-.778 0-1.428-.114-1.954-.342a2.74 2.74 0 0 1-1.238-1.03 2.93 2.93 0 0 1-.47-1.556zm11.299 2.78h1.136v-8.65h-1.136v8.65zm5.842 0v-8.65h1.167l4.513 6.792v-6.79h1.09v8.65h-1.167l-4.513-6.798v6.796h-1.09zm11.415 0v-8.65h6.214v1.022h-5.076v2.649h4.755v1.014h-4.755v2.944h5.275v1.023l-6.413-.002zm10.31-2.78l1.072-.094c.052.435.17.789.356 1.066.184.276.473.502.864.671.391.173.83.258 1.319.258.433 0 .818-.064 1.149-.195.333-.13.579-.308.742-.534.158-.214.243-.473.243-.74a1.132 1.132 0 0 0-.235-.71c-.156-.204-.414-.373-.773-.512-.232-.09-.743-.23-1.53-.42-.789-.192-1.342-.372-1.659-.54a2.323 2.323 0 0 1-.917-.806 1.967 1.967 0 0 1-.303-1.077c0-.437.121-.846.37-1.224.262-.393.64-.695 1.079-.863a4.062 4.062 0 0 1 1.576-.296c.637 0 1.197.103 1.684.31.488.205.86.51 1.125.912.262.4.401.854.42 1.362l-1.09.082c-.058-.546-.258-.96-.594-1.238-.338-.28-.839-.42-1.498-.42-.688 0-1.19.127-1.503.381-.316.254-.472.559-.472.916 0 .313.111.567.334.769.218.201.788.405 1.712.616.925.21 1.561.394 1.904.552.5.23.868.525 1.108.882.238.355.357.766.357 1.23 0 .46-.131.894-.394 1.3-.26.408-.636.724-1.127.95a3.91 3.91 0 0 1-1.655.34c-.778 0-1.43-.114-1.955-.342a2.747 2.747 0 0 1-1.237-1.03 2.972 2.972 0 0 1-.473-1.556h.002zm10.72 0l1.072-.094c.05.435.168.789.356 1.066.185.276.473.502.864.671.39.173.83.258 1.318.258.434 0 .817-.064 1.15-.195.33-.13.578-.308.739-.534.159-.213.244-.473.244-.74a1.128 1.128 0 0 0-.234-.71c-.156-.204-.413-.373-.773-.512-.23-.09-.742-.23-1.53-.42-.788-.192-1.343-.372-1.658-.54a2.334 2.334 0 0 1-.919-.806c-.2-.32-.303-.68-.303-1.077a2.2 2.2 0 0 1 .372-1.224c.245-.38.606-.668 1.079-.863.47-.199.997-.296 1.576-.296.636 0 1.197.103 1.685.31.485.205.86.51 1.122.912.26.4.403.854.424 1.362l-1.093.082c-.057-.546-.257-.96-.594-1.238-.34-.28-.838-.42-1.499-.42-.686 0-1.188.127-1.503.381-.314.254-.47.559-.47.916 0 .313.11.567.333.769.219.201.79.405 1.715.616.924.21 1.556.394 1.9.552.5.23.871.525 1.11.882.237.355.357.766.357 1.23 0 .46-.132.894-.394 1.3-.276.42-.668.75-1.128.95a3.908 3.908 0 0 1-1.655.34c-.777 0-1.43-.114-1.955-.342a2.732 2.732 0 0 1-1.236-1.03 2.904 2.904 0 0 1-.472-1.556z"/>
        </g>
    </g>
</svg>
